<svg xmlns="http://www.w3.org/2000/svg" viewBox="0 0 1600 900" width="1600" height="900">
  <path d="M 192 204 L 192 695 L 1407 695 L 1407 204 Z M 200 213 L 201 212 L 1398 212 L 1399 213 L 1399 686 L 1398 687 L 201 687 L 200 686 Z" fill="#5b21b6" fill-rule="evenodd"/>
  <path d="M 757 457 L 702 477 L 690 479 L 687 481 L 700 482 L 689 538 L 742 537 Z M 1341 350 L 1132 350 L 1123 392 L 1199 392 L 1201 394 L 1173 538 L 1226 537 L 1227 526 L 1239 471 L 1253 394 L 1256 392 L 1332 392 Z M 1105 350 L 923 350 L 901 460 L 897 487 L 895 491 L 891 518 L 886 537 L 939 537 L 940 526 L 952 470 L 1067 470 L 1069 466 L 1076 428 L 961 428 L 960 423 L 966 394 L 968 392 L 1097 392 Z M 878 350 L 825 350 L 789 538 L 841 538 Z M 526 538 L 578 538 L 586 500 L 587 487 L 590 483 L 602 480 L 614 474 L 646 464 L 764 418 L 777 350 L 725 350 L 711 421 L 699 423 L 602 423 L 600 420 L 603 411 L 603 405 L 609 381 L 614 350 L 562 350 L 536 481 L 535 492 L 532 501 Z M 324 364 L 318 370 L 310 382 L 307 389 L 303 407 L 303 418 L 307 435 L 310 441 L 319 451 L 331 458 L 355 464 L 442 464 L 445 465 L 451 471 L 452 480 L 449 488 L 441 494 L 433 496 L 293 495 L 284 538 L 447 538 L 467 533 L 479 526 L 487 519 L 498 502 L 503 483 L 502 458 L 495 443 L 487 435 L 475 428 L 458 423 L 366 422 L 356 414 L 355 406 L 358 399 L 367 392 L 507 392 L 516 350 L 361 350 L 343 354 Z" fill="#a855f7" fill-rule="evenodd"/>
</svg>
